<svg id="Layer_1" data-name="Layer 1" xmlns="http://www.w3.org/2000/svg" width="70" height="70" viewBox="0 0 70 70">
  <title>tech-stack copy 2</title>
  <g>
    <polygon points="4.44 39.28 5.38 40.65 1.49 43.34 6.76 42.38 5.81 41.02 9.71 38.32 4.44 39.28" style="fill: #f5aa2a"/>
    <path d="M54.43,43l0,0-9.24-7.48a.34.34,0,0,0,.12-.26V33.42a.34.34,0,1,0-.68,0v1.67l-14-11.29L33,21.44a.59.59,0,0,0,0-.84l-2.93-2.93,3.23-3.23a.59.59,0,0,0-.14-.94c-3.28-1.75-7.8-.08-8.13,0-6.37,2.19-8.9,8.73-9,9v0c-1.69,4.93-4.71,5.79-5.6,5.94L8.63,26.69a.61.61,0,0,0-.84,0L4.64,29.84a.59.59,0,0,0,0,.84L16.21,42.25a.59.59,0,0,0,.84,0L20.2,39.1a.59.59,0,0,0,0-.84l-1.82-1.82c0-.82.45-3.95,5.57-6a.6.6,0,0,0,.2-.13l.84-.84,10,11.59a.34.34,0,0,0,.26.3L44.86,52.6l0,0v0a6.76,6.76,0,0,0,9.57-9.57ZM18.94,38.68,16.63,41,5.9,30.26,8.21,28Zm4.46-9.3c-4.41,1.81-5.7,4.43-6.06,6l-5.91-5.91c1.53-.49,4.19-2,5.74-6.52.09-.24,2.53-6.33,8.29-8.3h0s3.6-1.37,6.39-.44L25.59,20.5A7.42,7.42,0,0,0,23.15,25a5.16,5.16,0,0,0,1.08,3.53Zm.93-4.26a6.33,6.33,0,0,1,2-3.73l0,0,2.84-2.84L31.76,21l-2.41,2.41L25.08,27.7A4,4,0,0,1,24.33,25.12ZM45.74,51.8,25.83,28.63l2.07-2.07L50.4,49.06a7.83,7.83,0,0,0-2,4.21A5.54,5.54,0,0,1,45.74,51.8Zm7.88,0a5.56,5.56,0,0,1-4.07,1.63c.53-3.7,4.22-5.63,5.66-6.25A5.57,5.57,0,0,1,53.61,51.79ZM52,47.62a11.21,11.21,0,0,0-1.14,1l-22.5-22.5,1.43-1.43L53.63,43.92A5.54,5.54,0,0,1,54.93,46,13.79,13.79,0,0,0,52,47.62Z" style="fill: #f5aa2a"/>
    <path d="M44.95,24.44a.34.34,0,0,0,.34-.34V22.23a.34.34,0,1,0-.68,0V24.1A.34.34,0,0,0,44.95,24.44Z" style="fill: #f5aa2a"/>
    <path d="M44.95,31.9a.34.34,0,0,0,.34-.34V29.69a.34.34,0,1,0-.68,0v1.87A.34.34,0,0,0,44.95,31.9Z" style="fill: #f5aa2a"/>
    <path d="M44.95,28.17a.34.34,0,0,0,.34-.34V26a.34.34,0,1,0-.68,0v1.87A.34.34,0,0,0,44.95,28.17Z" style="fill: #f5aa2a"/>
    <path d="M52.3,20.59h1.87a.34.34,0,0,0,0-.68H52.3a.34.34,0,1,0,0,.68Z" style="fill: #f5aa2a"/>
    <path d="M48.57,20.59h1.87a.34.34,0,0,0,0-.68H48.57a.34.34,0,1,0,0,.68Z" style="fill: #f5aa2a"/>
    <path d="M44.95,20.7a.34.34,0,0,0,.25-.11h1.5a.34.34,0,0,0,0-.68H44.95a.34.34,0,0,0-.34.34v.11A.34.34,0,0,0,44.95,20.7Z" style="fill: #f5aa2a"/>
    <path d="M23.4,44.42a.34.34,0,0,0,.34-.34V42.21a.34.34,0,1,0-.68,0v1.87A.34.34,0,0,0,23.4,44.42Z" style="fill: #f5aa2a"/>
    <path d="M25.95,40.69H24.08a.34.34,0,0,0,0,.68h1.87a.34.34,0,0,0,0-.68Z" style="fill: #f5aa2a"/>
    <path d="M29.68,40.69H27.81a.34.34,0,0,0,0,.68h1.87a.34.34,0,0,0,0-.68Z" style="fill: #f5aa2a"/>
    <path d="M33.41,40.69H31.54a.34.34,0,0,0,0,.68h1.87a.34.34,0,0,0,0-.68Z" style="fill: #f5aa2a"/>
    <path d="M23.06,47.81a.34.34,0,1,0,.68,0V45.95a.34.34,0,1,0-.68,0Z" style="fill: #f5aa2a"/>
    <path d="M23.06,51.54a.34.34,0,1,0,.68,0V49.68a.34.34,0,1,0-.68,0Z" style="fill: #f5aa2a"/>
    <circle cx="23.4" cy="54" r="1.79" style="fill: #f5aa2a"/>
    <circle cx="59.57" cy="20.25" r="3.6" style="fill: #f5aa2a"/>
  </g>
</svg>
