<svg id="Layer_1" data-name="Layer 1" xmlns="http://www.w3.org/2000/svg" xmlns:xlink="http://www.w3.org/1999/xlink" width="103.41" height="34.08" viewBox="0 0 103.41 34.08">
  <defs>
    <style>
      .cls-1 {
        fill: none;
      }

      .cls-2, .cls-3, .cls-5 {
        fill: #f5aa2b;
      }

      .cls-2 {
        clip-rule: evenodd;
      }

      .cls-4 {
        clip-path: url(#clip-path);
      }

      .cls-5 {
        fill-rule: evenodd;
      }

      .cls-6 {
        clip-path: url(#clip-path-2);
      }

      .cls-7 {
        clip-path: url(#clip-path-3);
      }

      .cls-8 {
        clip-path: url(#clip-path-4);
      }

      .cls-9 {
        clip-path: url(#clip-path-5);
      }

      .cls-10 {
        clip-path: url(#clip-path-6);
      }

      .cls-11 {
        clip-path: url(#clip-path-7);
      }

      .cls-12 {
        clip-path: url(#clip-path-8);
      }

      .cls-13 {
        clip-path: url(#clip-path-9);
      }

      .cls-14 {
        clip-path: url(#clip-path-10);
      }

      .cls-15 {
        clip-path: url(#clip-path-11);
      }

      .cls-16 {
        clip-path: url(#clip-path-12);
      }

      .cls-17 {
        clip-path: url(#clip-path-13);
      }

      .cls-18 {
        clip-path: url(#clip-path-14);
      }

      .cls-19 {
        clip-path: url(#clip-path-15);
      }

      .cls-20 {
        clip-path: url(#clip-path-16);
      }

      .cls-21 {
        clip-path: url(#clip-path-17);
      }

      .cls-22 {
        clip-path: url(#clip-path-18);
      }

      .cls-23 {
        clip-path: url(#clip-path-19);
      }
    </style>
    <clipPath id="clip-path">
      <rect class="cls-1" x="-1022.91" y="-1552.16" width="23.39" height="20.48"/>
    </clipPath>
    <clipPath id="clip-path-2">
      <path class="cls-2" d="M-1002.61-1559.87a.94.94,0,0,0-.53.09,4.39,4.39,0,0,0-.36,1c-.09-.27-.18-.63-.45-.72s-.54.36-.63.82a1.4,1.4,0,0,0,.09.9.32.32,0,0,0,.45.09.92.92,0,0,1-.81.55c-.18,0-.45-.09-.81-.09l-.54-.19c-.09,0-.18-.09-.27-.18a.67.67,0,0,1-.09-.45v-.36c.27.18.54.36.81.27a1.17,1.17,0,0,0,.54-.73c.18-.54.09-1.08-.18-1.18a.61.61,0,0,0-.81.28,4,4,0,0,1,.9-1.18h.09v-.1l-.27-.27a2.21,2.21,0,0,0,.36-1.08,2.84,2.84,0,0,1,2.43.18,1.14,1.14,0,0,1,.44,1A2.73,2.73,0,0,1-1002.61-1559.87Zm-4.4-.46v.37c-.18-.28-.45-.64-.81-.55s-.44.45-.53.91.18,1,.44,1.09a.74.74,0,0,0,.63,0c-.09.27-.45.81-.89.81l-.9-.09-.81-.09c-.72,0-.9-1-.9-1.18,0,0,.36.37.63.37.09.09.18.09.36,0a1.49,1.49,0,0,0,.54-.82,1.88,1.88,0,0,0,0-1l-.27-.27h-.18a1.46,1.46,0,0,0-.81.36h-.09v-.09l.18-.27a2.07,2.07,0,0,0,.27-.46c.09-.18.09-.45-.09-.54a.83.83,0,0,0-.54-.36v-.46a5,5,0,0,0,1.89-.54c.8-.27,1.52-.64,2.15-.36a1.28,1.28,0,0,1,.72,1.27,2,2,0,0,1-.09.72,1.3,1.3,0,0,0-.63.18C-1006.92-1561.24-1007-1561-1007-1560.33Zm-4.58-1.81a1.45,1.45,0,0,0-.63.36.55.55,0,0,0-.09.54.92.92,0,0,0,.36.46l.09.27c.09.09,0,.09,0,.09a1.46,1.46,0,0,0-.81-.36h-.18q-.27.13-.27.27a1.31,1.31,0,0,0-.08,1c.17.36.35.72.62.82a.27.27,0,0,0,.36,0c.27,0,.54-.37.54-.37h.09c-.09.18-.27,1.18-.9,1.18l-.89.09-.9.09c-.45,0-.72-.54-.9-.81a1,1,0,0,0,.72,0c.27-.09.45-.55.36-1.09s-.27-.91-.54-.91-.63.27-.72.55a.73.73,0,0,1-.09-.37c0-.63,0-.91-.27-1a1,1,0,0,0-.63-.18,2,2,0,0,1-.09-.72,1.44,1.44,0,0,1,.72-1.27c.63-.28,1.44.09,2.25.36a4.91,4.91,0,0,0,1.88.54Zm-4.4,4.53c-.09.09-.18.18-.27.18l-.54.19c-.27,0-.63.09-.81.09a.93.93,0,0,1-.81-.55.32.32,0,0,0,.45-.09,1,1,0,0,0,.09-.9c-.09-.46-.35-.82-.63-.82a1.48,1.48,0,0,0-.44.72,2.21,2.21,0,0,0-.36-1,.67.67,0,0,0-.45-.09,3.05,3.05,0,0,1-.45-1.37,1.24,1.24,0,0,1,.54-1,2.62,2.62,0,0,1,2.33-.18,3.81,3.81,0,0,0,.36,1.08c-.09.09-.18.19-.18.27v.1a3.09,3.09,0,0,1,1,1.18c-.18-.18-.45-.46-.81-.28s-.36.64-.18,1.18a1.11,1.11,0,0,0,.45.73.91.91,0,0,0,.81-.27c0,.09.09.18.09.36A.69.69,0,0,1-1016-1557.61Zm14.82-1.18a1.3,1.3,0,0,0-.81-1,2.74,2.74,0,0,0,.63-1.73v-.27a1.66,1.66,0,0,0-.72-1.18,3.19,3.19,0,0,0-3-.18,1.82,1.82,0,0,0-1.62-1.45,4.5,4.5,0,0,0-2.51.73,3.06,3.06,0,0,1-1.62.63v-.36a1.49,1.49,0,0,0,1-1.36,1.37,1.37,0,0,0-1.08-1.37v-.54h.36c.09.18.18.27.36.27a.5.5,0,0,0,.45-.54.51.51,0,0,0-.45-.55c-.18,0-.27.1-.36.28h-.36v-.37a.69.69,0,0,0,.18-.45.5.5,0,0,0-.54-.45.43.43,0,0,0-.45.45c0,.18,0,.36.18.45v.37h-.36a.5.5,0,0,0-.45-.28.51.51,0,0,0-.45.55.5.5,0,0,0,.45.54.49.49,0,0,0,.45-.27h.27v.54a1.37,1.37,0,0,0-1.08,1.37,1.45,1.45,0,0,0,1.08,1.36v.36a3,3,0,0,1-1.7-.63,4.23,4.23,0,0,0-2.43-.73,1.72,1.72,0,0,0-1.62,1.45,3.18,3.18,0,0,0-3,.18,1.79,1.79,0,0,0-.81,1.18v.27a2.74,2.74,0,0,0,.63,1.73,1.19,1.19,0,0,0-.72,1l-.09.1h.09s1.53.18,1.89.63a2.33,2.33,0,0,1,.54,1.27v.09a1.27,1.27,0,0,0,.45.27h.17v.18l.09,2.45h13.66l.09-2.45v-.18h.27c.18-.09.45-.27.45-.27v-.09a2.35,2.35,0,0,1,.53-1.27c.37-.45,1.8-.63,1.8-.63h.09Z"/>
    </clipPath>
    <clipPath id="clip-path-3">
      <polygon class="cls-2" points="-938.74 -1553.51 -938.74 -1542.11 -937.15 -1542.11 -937.15 -1546 -933.34 -1542.11 -931.13 -1542.11 -935.55 -1546.45 -931.57 -1549.89 -933.78 -1549.89 -937.15 -1546.82 -937.15 -1553.51 -938.74 -1553.51"/>
    </clipPath>
    <clipPath id="clip-path-4">
      <rect class="cls-3" x="-957.69" y="-1553.24" width="1.77" height="1.72"/>
    </clipPath>
    <clipPath id="clip-path-5">
      <rect class="cls-3" x="-971.67" y="-1553.24" width="1.86" height="1.72"/>
    </clipPath>
    <clipPath id="clip-path-6">
      <polygon class="cls-2" points="-982.65 -1552.7 -986.28 -1543.47 -986.37 -1543.47 -990 -1552.7 -991.95 -1552.7 -987.52 -1542.11 -985.31 -1542.11 -980.88 -1552.7 -982.65 -1552.7"/>
    </clipPath>
    <clipPath id="clip-path-7">
      <rect class="cls-3" x="-957.6" y="-1549.89" width="1.59" height="7.78"/>
    </clipPath>
    <clipPath id="clip-path-8">
      <path class="cls-2" d="M-975.21-1546.72h-4.34a2.18,2.18,0,0,1,2.21-2.09,2.07,2.07,0,0,1,2.13,2.09m-4.34,1.08h6.1c0-2.17-.79-4.43-3.8-4.43a3.78,3.78,0,0,0-4.07,4c0,2.71,1.68,4.16,4.42,4.16a8.14,8.14,0,0,0,2.75-.45V-1544a5.39,5.39,0,0,1-2.66.72,2.49,2.49,0,0,1-2.74-2.35"/>
    </clipPath>
    <clipPath id="clip-path-9">
      <path class="cls-2" d="M-942.19-1546.72h-4.34a2.19,2.19,0,0,1,2.21-2.09,2.07,2.07,0,0,1,2.13,2.09m-4.34,1.08h6c0-2.17-.71-4.43-3.72-4.43a3.78,3.78,0,0,0-4.07,4c0,2.71,1.68,4.16,4.43,4.16a8.61,8.61,0,0,0,2.74-.45V-1544a5.39,5.39,0,0,1-2.66.72,2.49,2.49,0,0,1-2.74-2.35"/>
    </clipPath>
    <clipPath id="clip-path-10">
      <path class="cls-2" d="M-887.75-1546.72H-892a2.17,2.17,0,0,1,2.21-2.09,2,2,0,0,1,2,2.09m-4.24,1.08h6c0-2.17-.71-4.43-3.8-4.43a3.76,3.76,0,0,0-4,4c0,2.71,1.69,4.16,4.43,4.16a8.55,8.55,0,0,0,2.74-.45V-1544a5.33,5.33,0,0,1-2.65.72,2.48,2.48,0,0,1-2.74-2.35"/>
    </clipPath>
    <clipPath id="clip-path-11">
      <path class="cls-2" d="M-971.58-1549.89H-970v8.05c0,2.53-1,3.07-2.48,3.07h-1l.09-1.35a1.73,1.73,0,0,0,.62.09c.62,0,1.16-.27,1.16-1.63Z"/>
    </clipPath>
    <clipPath id="clip-path-12">
      <path class="cls-2" d="M-961.76-1548.9v-4.61h1.6v11.4h-1.51v-1a3.73,3.73,0,0,1-2.92,1.18c-2.3,0-3.72-1.72-3.72-4.16s1.51-4,3.72-4a3.21,3.21,0,0,1,2.83,1.17m-2.48.09c-1.41,0-2.39,1-2.39,2.72s.89,3,2.39,3a2.6,2.6,0,0,0,2.48-2.89,2.58,2.58,0,0,0-2.48-2.81"/>
    </clipPath>
    <clipPath id="clip-path-13">
      <path class="cls-2" d="M-951.84-1542.11h-1.69v-7.78h1.6v1.17a2.53,2.53,0,0,1,2.21-1.35c.44,0,.8.09,1.07.09v1.45a1.4,1.4,0,0,0-.89-.19c-1.24,0-2.3.82-2.3,3.17Z"/>
    </clipPath>
    <clipPath id="clip-path-14">
      <path class="cls-2" d="M-912.54-1542.11h-1.59v-7.78h1.51v1.17a2.52,2.52,0,0,1,2.21-1.35c.44,0,.88.09,1.06.09v1.45a1.25,1.25,0,0,0-.88-.19c-1.24,0-2.31.82-2.31,3.17Z"/>
    </clipPath>
    <clipPath id="clip-path-15">
      <path class="cls-2" d="M-929.18-1548.62H-931v-1.27h1.86v-1.72l1.59-.54v2.26h2.22v1.27h-2.22v4.07c0,.9.36,1.44,1.33,1.44a1.66,1.66,0,0,0,1.06-.36v1.36a4,4,0,0,1-1.41.18c-1.15,0-2.57-.55-2.57-2.17Z"/>
    </clipPath>
    <clipPath id="clip-path-16">
      <path class="cls-2" d="M-898.64-1548.62h-1.77v-1.27h1.77v-1.72l1.69-.54v2.26h2.21v1.27h-2.21v4.07c0,.9.35,1.44,1.24,1.44a1.7,1.7,0,0,0,1.06-.36v1.36a3.63,3.63,0,0,1-1.33.18c-1.15,0-2.66-.55-2.66-2.17Z"/>
    </clipPath>
    <clipPath id="clip-path-17">
      <rect class="cls-1" x="-885.36" y="-1552.15" width="5.75" height="10.22"/>
    </clipPath>
    <clipPath id="clip-path-18">
      <path class="cls-2" d="M-924.49-1546a4,4,0,0,0,4.34,4.07c2.66,0,4.43-1.63,4.43-4.07s-1.77-4.07-4.43-4.07a4,4,0,0,0-4.34,4.07m1.68,0a2.56,2.56,0,0,1,2.66-2.81,2.59,2.59,0,0,1,2.75,2.81,2.61,2.61,0,0,1-2.75,2.89,2.58,2.58,0,0,1-2.66-2.89"/>
    </clipPath>
    <clipPath id="clip-path-19">
      <path class="cls-2" d="M-905.1-1550.07c2.13,0,3.45.81,3.45,3.35v4.61h-1.5v-.91a3.18,3.18,0,0,1-2.57,1.09c-1.5,0-3.19-.45-3.19-2.44,0-1.63,1.78-2.54,4.08-2.54h1.59c0-1.17-.44-1.81-2.13-1.81a4.84,4.84,0,0,0-2.56.82v-1.63a5.9,5.9,0,0,1,2.83-.54m.89,4.25c-1.33,0-3,.27-3,1.45,0,.72.53,1.26,1.59,1.26s2.39-.45,2.39-2v-.63c-.35,0-.8-.09-1-.09"/>
    </clipPath>
  </defs>
  <title>kundelogoer_alle</title>
  <g>
    <g>
      <path class="cls-5" d="M-1002.61-1559.87a.94.94,0,0,0-.53.09,4.39,4.39,0,0,0-.36,1c-.09-.27-.18-.63-.45-.72s-.54.36-.63.82a1.4,1.4,0,0,0,.09.9.32.32,0,0,0,.45.09.92.92,0,0,1-.81.55c-.18,0-.45-.09-.81-.09l-.54-.19c-.09,0-.18-.09-.27-.18a.67.67,0,0,1-.09-.45v-.36c.27.18.54.36.81.27a1.17,1.17,0,0,0,.54-.73c.18-.54.09-1.08-.18-1.18a.61.61,0,0,0-.81.28,4,4,0,0,1,.9-1.18h.09v-.1l-.27-.27a2.21,2.21,0,0,0,.36-1.08,2.84,2.84,0,0,1,2.43.18,1.14,1.14,0,0,1,.44,1A2.73,2.73,0,0,1-1002.61-1559.87Zm-4.4-.46v.37c-.18-.28-.45-.64-.81-.55s-.44.45-.53.91.18,1,.44,1.09a.74.74,0,0,0,.63,0c-.09.27-.45.81-.89.81l-.9-.09-.81-.09c-.72,0-.9-1-.9-1.18,0,0,.36.37.63.37.09.09.18.09.36,0a1.49,1.49,0,0,0,.54-.82,1.88,1.88,0,0,0,0-1l-.27-.27h-.18a1.46,1.46,0,0,0-.81.36h-.09v-.09l.18-.27a2.07,2.07,0,0,0,.27-.46c.09-.18.09-.45-.09-.54a.83.83,0,0,0-.54-.36v-.46a5,5,0,0,0,1.89-.54c.8-.27,1.52-.64,2.15-.36a1.28,1.28,0,0,1,.72,1.27,2,2,0,0,1-.09.72,1.3,1.3,0,0,0-.63.18C-1006.92-1561.24-1007-1561-1007-1560.33Zm-4.58-1.81a1.45,1.45,0,0,0-.63.36.55.55,0,0,0-.09.54.92.92,0,0,0,.36.46l.09.27c.09.09,0,.09,0,.09a1.46,1.46,0,0,0-.81-.36h-.18q-.27.13-.27.27a1.31,1.31,0,0,0-.08,1c.17.36.35.72.62.82a.27.27,0,0,0,.36,0c.27,0,.54-.37.54-.37h.09c-.09.18-.27,1.18-.9,1.18l-.89.09-.9.09c-.45,0-.72-.54-.9-.81a1,1,0,0,0,.72,0c.27-.09.45-.55.36-1.09s-.27-.91-.54-.91-.63.27-.72.55a.73.73,0,0,1-.09-.37c0-.63,0-.91-.27-1a1,1,0,0,0-.63-.18,2,2,0,0,1-.09-.72,1.44,1.44,0,0,1,.72-1.27c.63-.28,1.44.09,2.25.36a4.91,4.91,0,0,0,1.88.54Zm-4.4,4.53c-.09.09-.18.18-.27.18l-.54.19c-.27,0-.63.09-.81.09a.93.93,0,0,1-.81-.55.32.32,0,0,0,.45-.09,1,1,0,0,0,.09-.9c-.09-.46-.35-.82-.63-.82a1.48,1.48,0,0,0-.44.72,2.21,2.21,0,0,0-.36-1,.67.67,0,0,0-.45-.09,3.05,3.05,0,0,1-.45-1.37,1.24,1.24,0,0,1,.54-1,2.62,2.62,0,0,1,2.33-.18,3.81,3.81,0,0,0,.36,1.08c-.09.09-.18.19-.18.27v.1a3.09,3.09,0,0,1,1,1.18c-.18-.18-.45-.46-.81-.28s-.36.64-.18,1.18a1.11,1.11,0,0,0,.45.73.91.91,0,0,0,.81-.27c0,.09.09.18.09.36A.69.69,0,0,1-1016-1557.61Zm14.82-1.18a1.3,1.3,0,0,0-.81-1,2.74,2.74,0,0,0,.63-1.73v-.27a1.66,1.66,0,0,0-.72-1.18,3.19,3.19,0,0,0-3-.18,1.82,1.82,0,0,0-1.62-1.45,4.5,4.5,0,0,0-2.51.73,3.06,3.06,0,0,1-1.62.63v-.36a1.49,1.49,0,0,0,1-1.36,1.37,1.37,0,0,0-1.08-1.37v-.54h.36c.09.18.18.27.36.27a.5.5,0,0,0,.45-.54.51.51,0,0,0-.45-.55c-.18,0-.27.1-.36.28h-.36v-.37a.69.69,0,0,0,.18-.45.5.5,0,0,0-.54-.45.43.43,0,0,0-.45.45c0,.18,0,.36.18.45v.37h-.36a.5.5,0,0,0-.45-.28.51.51,0,0,0-.45.55.5.5,0,0,0,.45.54.49.49,0,0,0,.45-.27h.27v.54a1.37,1.37,0,0,0-1.08,1.37,1.45,1.45,0,0,0,1.08,1.36v.36a3,3,0,0,1-1.7-.63,4.23,4.23,0,0,0-2.43-.73,1.72,1.72,0,0,0-1.62,1.45,3.18,3.18,0,0,0-3,.18,1.79,1.79,0,0,0-.81,1.18v.27a2.74,2.74,0,0,0,.63,1.73,1.19,1.19,0,0,0-.72,1l-.09.1h.09s1.53.18,1.89.63a2.33,2.33,0,0,1,.54,1.27v.09a1.27,1.27,0,0,0,.45.27h.17v.18l.09,2.45h13.66l.09-2.45v-.18h.27c.18-.09.45-.27.45-.27v-.09a2.35,2.35,0,0,1,.53-1.27c.37-.45,1.8-.63,1.8-.63h.09Z"/>
      <g class="cls-6">
        <rect class="cls-3" x="-1041.02" y="-1580.4" width="1534.5" height="3050.89"/>
      </g>
    </g>
    <g>
      <g>
        <polygon class="cls-5" points="-938.74 -1553.51 -938.74 -1542.11 -937.15 -1542.11 -937.15 -1546 -933.34 -1542.11 -931.13 -1542.11 -935.55 -1546.45 -931.57 -1549.89 -933.78 -1549.89 -937.15 -1546.82 -937.15 -1553.51 -938.74 -1553.51"/>
        <g class="cls-7">
          <rect class="cls-3" x="-1043.1" y="-1580.4" width="1534.5" height="3050.89"/>
        </g>
      </g>
      <g>
        <rect class="cls-3" x="-957.69" y="-1553.24" width="1.77" height="1.72"/>
        <g class="cls-8">
          <rect class="cls-3" x="-1043.1" y="-1580.4" width="1534.5" height="3050.89"/>
        </g>
      </g>
      <g>
        <rect class="cls-3" x="-971.67" y="-1553.24" width="1.86" height="1.72"/>
        <g class="cls-9">
          <rect class="cls-3" x="-1043.1" y="-1580.4" width="1534.5" height="3050.89"/>
        </g>
      </g>
      <g>
        <polygon class="cls-5" points="-982.65 -1552.7 -986.28 -1543.47 -986.37 -1543.47 -990 -1552.7 -991.95 -1552.7 -987.52 -1542.11 -985.31 -1542.11 -980.88 -1552.7 -982.65 -1552.7"/>
        <g class="cls-10">
          <rect class="cls-3" x="-1043.1" y="-1580.4" width="1534.5" height="3050.89"/>
        </g>
      </g>
      <g>
        <rect class="cls-3" x="-957.6" y="-1549.89" width="1.59" height="7.78"/>
        <g class="cls-11">
          <rect class="cls-3" x="-1043.1" y="-1580.4" width="1534.5" height="3050.89"/>
        </g>
      </g>
      <g>
        <path class="cls-5" d="M-975.21-1546.72h-4.34a2.18,2.18,0,0,1,2.21-2.09,2.07,2.07,0,0,1,2.13,2.09m-4.34,1.08h6.1c0-2.17-.79-4.43-3.8-4.43a3.78,3.78,0,0,0-4.07,4c0,2.71,1.68,4.16,4.42,4.16a8.14,8.14,0,0,0,2.75-.45V-1544a5.39,5.39,0,0,1-2.66.72,2.49,2.49,0,0,1-2.74-2.35"/>
        <g class="cls-12">
          <rect class="cls-3" x="-1043.1" y="-1580.4" width="1534.5" height="3050.89"/>
        </g>
      </g>
      <g>
        <path class="cls-5" d="M-942.19-1546.72h-4.34a2.19,2.19,0,0,1,2.21-2.09,2.07,2.07,0,0,1,2.13,2.09m-4.34,1.08h6c0-2.17-.71-4.43-3.72-4.43a3.78,3.78,0,0,0-4.07,4c0,2.71,1.68,4.16,4.43,4.16a8.61,8.61,0,0,0,2.74-.45V-1544a5.39,5.39,0,0,1-2.66.72,2.49,2.49,0,0,1-2.74-2.35"/>
        <g class="cls-13">
          <rect class="cls-3" x="-1043.1" y="-1580.4" width="1534.5" height="3050.89"/>
        </g>
      </g>
      <g>
        <path class="cls-5" d="M-887.75-1546.72H-892a2.17,2.17,0,0,1,2.21-2.09,2,2,0,0,1,2,2.09m-4.24,1.08h6c0-2.17-.71-4.43-3.8-4.43a3.76,3.76,0,0,0-4,4c0,2.71,1.69,4.16,4.43,4.16a8.55,8.55,0,0,0,2.74-.45V-1544a5.33,5.33,0,0,1-2.65.72,2.48,2.48,0,0,1-2.74-2.35"/>
        <g class="cls-14">
          <rect class="cls-3" x="-1043.1" y="-1580.4" width="1534.5" height="3050.89"/>
        </g>
      </g>
      <g>
        <path class="cls-5" d="M-971.58-1549.89H-970v8.05c0,2.53-1,3.07-2.48,3.07h-1l.09-1.35a1.73,1.73,0,0,0,.62.09c.62,0,1.16-.27,1.16-1.63Z"/>
        <g class="cls-15">
          <rect class="cls-3" x="-1043.1" y="-1580.4" width="1534.5" height="3050.89"/>
        </g>
      </g>
      <g>
        <path class="cls-5" d="M-961.76-1548.9v-4.61h1.6v11.4h-1.51v-1a3.73,3.73,0,0,1-2.92,1.18c-2.3,0-3.72-1.72-3.72-4.16s1.51-4,3.72-4a3.21,3.21,0,0,1,2.83,1.17m-2.48.09c-1.41,0-2.39,1-2.39,2.72s.89,3,2.39,3a2.6,2.6,0,0,0,2.48-2.89,2.58,2.58,0,0,0-2.48-2.81"/>
        <g class="cls-16">
          <rect class="cls-3" x="-1043.1" y="-1580.4" width="1534.5" height="3050.89"/>
        </g>
      </g>
      <g>
        <path class="cls-5" d="M-951.84-1542.11h-1.69v-7.78h1.6v1.17a2.53,2.53,0,0,1,2.21-1.35c.44,0,.8.09,1.07.09v1.45a1.4,1.4,0,0,0-.89-.19c-1.24,0-2.3.82-2.3,3.17Z"/>
        <g class="cls-17">
          <rect class="cls-3" x="-1043.1" y="-1580.4" width="1534.5" height="3050.89"/>
        </g>
      </g>
      <g>
        <path class="cls-5" d="M-912.54-1542.11h-1.59v-7.78h1.51v1.17a2.52,2.52,0,0,1,2.21-1.35c.44,0,.88.09,1.06.09v1.45a1.25,1.25,0,0,0-.88-.19c-1.24,0-2.31.82-2.31,3.17Z"/>
        <g class="cls-18">
          <rect class="cls-3" x="-1043.1" y="-1580.4" width="1534.5" height="3050.89"/>
        </g>
      </g>
      <g>
        <path class="cls-5" d="M-929.18-1548.62H-931v-1.27h1.86v-1.72l1.59-.54v2.26h2.22v1.27h-2.22v4.07c0,.9.36,1.44,1.33,1.44a1.66,1.66,0,0,0,1.06-.36v1.36a4,4,0,0,1-1.41.18c-1.15,0-2.57-.55-2.57-2.17Z"/>
        <g class="cls-19">
          <rect class="cls-3" x="-1043.1" y="-1580.4" width="1534.5" height="3050.89"/>
        </g>
      </g>
      <g>
        <path class="cls-5" d="M-898.64-1548.62h-1.77v-1.27h1.77v-1.72l1.69-.54v2.26h2.21v1.27h-2.21v4.07c0,.9.35,1.44,1.24,1.44a1.7,1.7,0,0,0,1.06-.36v1.36a3.63,3.63,0,0,1-1.33.18c-1.15,0-2.66-.55-2.66-2.17Z"/>
        <g class="cls-20">
          <rect class="cls-3" x="-1043.1" y="-1580.4" width="1534.5" height="3050.89"/>
        </g>
      </g>
      <g>
        <path class="cls-5" d="M-924.49-1546a4,4,0,0,0,4.34,4.07c2.66,0,4.43-1.63,4.43-4.07s-1.77-4.07-4.43-4.07a4,4,0,0,0-4.34,4.07m1.68,0a2.56,2.56,0,0,1,2.66-2.81,2.59,2.59,0,0,1,2.75,2.81,2.61,2.61,0,0,1-2.75,2.89,2.58,2.58,0,0,1-2.66-2.89"/>
        <g class="cls-22">
          <rect class="cls-3" x="-1043.1" y="-1580.4" width="1534.5" height="3050.89"/>
        </g>
      </g>
      <g>
        <path class="cls-5" d="M-905.1-1550.07c2.13,0,3.45.81,3.45,3.35v4.61h-1.5v-.91a3.18,3.18,0,0,1-2.57,1.09c-1.5,0-3.19-.45-3.19-2.44,0-1.63,1.78-2.54,4.08-2.54h1.59c0-1.17-.44-1.81-2.13-1.81a4.84,4.84,0,0,0-2.56.82v-1.63a5.9,5.9,0,0,1,2.83-.54m.89,4.25c-1.33,0-3,.27-3,1.45,0,.72.53,1.26,1.59,1.26s2.39-.45,2.39-2v-.63c-.35,0-.8-.09-1-.09"/>
        <g class="cls-23">
          <rect class="cls-3" x="-1043.1" y="-1580.4" width="1534.5" height="3050.89"/>
        </g>
      </g>
    </g>
  </g>
  <g>
    <path class="cls-3" d="M19.46,13.63A1.49,1.49,0,0,0,18,15.12V19a1.48,1.48,0,0,0,1.48,1.48h6.13A1.37,1.37,0,0,1,27,21.82v4.07a1.37,1.37,0,0,1-1.37,1.38H19.46A1.48,1.48,0,0,0,18,28.75v4a1.37,1.37,0,0,1-1.38,1.37H1.37A1.37,1.37,0,0,1,0,32.71V28.64a1.37,1.37,0,0,1,1.37-1.37H16.49A1.49,1.49,0,0,0,18,25.78V21.93a1.49,1.49,0,0,0-1.49-1.48H1.37A1.37,1.37,0,0,1,0,19.08V15a1.37,1.37,0,0,1,1.37-1.38H16.49A1.49,1.49,0,0,0,18,12.15V8.3a1.49,1.49,0,0,0-1.49-1.48H1.37A1.37,1.37,0,0,1,0,5.44V1.37A1.37,1.37,0,0,1,1.37,0H16.6A1.37,1.37,0,0,1,18,1.37v4a1.49,1.49,0,0,0,1.48,1.49h6.13A1.37,1.37,0,0,1,27,8.19v4.07a1.37,1.37,0,0,1-1.37,1.37Z"/>
    <path class="cls-3" d="M50.44,13.27a4.93,4.93,0,0,1-1.3,3.2.29.29,0,0,0,0,.46,4.92,4.92,0,0,1,1.51,3.46c0,3.34-2.09,5.5-5.22,5.5h-6a.51.51,0,0,1-.51-.51V8.58a.51.51,0,0,1,.51-.51h6A5,5,0,0,1,50.44,13.27ZM45.3,14.92A1.7,1.7,0,0,0,47,13.27a1.69,1.69,0,0,0-1.68-1.63H42.65a.24.24,0,0,0-.25.25v2.78a.24.24,0,0,0,.25.25Zm-2.65,3.56a.24.24,0,0,0-.25.26v3.33a.24.24,0,0,0,.25.26H45.3a1.93,1.93,0,0,0,0-3.85Z"/>
    <path class="cls-3" d="M52.45,17.62a5.31,5.31,0,0,1,10.56,0,18.76,18.76,0,0,1,0,3.82,5.31,5.31,0,0,1-10.56,0A18.76,18.76,0,0,1,52.45,17.62Zm3.31,3.82c.13.89.69,1.42,2,1.42s1.86-.58,2-1.42a15.26,15.26,0,0,0,0-3.82c-.12-.84-.68-1.43-2-1.43s-1.81.46-2,1.43A16.27,16.27,0,0,0,55.76,21.44Z"/>
    <path class="cls-3" d="M72.91,13.24a.51.51,0,0,1,.51.51v2a.51.51,0,0,1-.51.51h-2.8a.24.24,0,0,0-.25.25v4.63a1.48,1.48,0,0,0,1.52,1.53h1.79a.5.5,0,0,1,.5.51v2.16a.5.5,0,0,1-.5.51H71.38c-2.9,0-4.83-1.76-4.83-4.66V16.55a.24.24,0,0,0-.26-.25h-2a.51.51,0,0,1-.51-.51v-2a.51.51,0,0,1,.51-.51h2a.24.24,0,0,0,.26-.25V9.09a.51.51,0,0,1,.51-.51h2.29a.51.51,0,0,1,.51.51V13a.24.24,0,0,0,.25.25Z"/>
    <path class="cls-3" d="M80.34,25.51a.52.52,0,0,1-.53.38h-3a.48.48,0,0,1-.4-.71l3.74-8.48a.56.56,0,0,0,0-.56L76.83,8.79a.5.5,0,0,1,.41-.72h2.87c.23,0,.36.11.49.39l2.11,5.27a.16.16,0,0,0,.3,0l2.12-5.27c.12-.28.25-.39.48-.39h2.88a.49.49,0,0,1,.4.72l-3.31,7.38a.56.56,0,0,0,0,.56l3.75,8.45a.49.49,0,0,1-.41.71h-3a.53.53,0,0,1-.54-.38l-2.37-6a.15.15,0,0,0-.3,0Z"/>
    <path class="cls-3" d="M103.22,13.42a34,34,0,0,1,0,7.13,6.07,6.07,0,0,1-12.11,0,32.69,32.69,0,0,1,0-7.13,6.07,6.07,0,0,1,12.11,0Zm-3.59,7.13a32.69,32.69,0,0,0,0-7.13,2.52,2.52,0,0,0-4.94,0,34,34,0,0,0,0,7.13,2.52,2.52,0,0,0,4.94,0Z"/>
  </g>
</svg>
