<?xml version="1.0" encoding="utf-8"?>
<!-- Generator: Adobe Illustrator 21.0.0, SVG Export Plug-In . SVG Version: 6.00 Build 0)  -->
<svg version="1.1" id="Layer_1" xmlns="http://www.w3.org/2000/svg" xmlns:xlink="http://www.w3.org/1999/xlink" x="0px" y="0px"
	 viewBox="0 0 339.4 423" fill="#4f00cf" style="enable-background:new 0 0 339.4 423;" xml:space="preserve">
<g>
	<polygon points="184,136.4 174.3,135 178.5,107.4 161.3,133.9 171,135.3 166.8,162.9 	"/>
	<polygon points="161.4,263.6 171.1,262.3 174.9,290 183.9,259.7 174.2,261 170.4,233.3 	"/>
	<path d="M19.9,265.8c0.5,0.3,1.1,0.5,1.7,0.5c0.3,0,0.6,0,0.9-0.1l21.7-5.9l3.5,13c0.2,0.9,0.8,1.7,1.6,2.1
		c0.5,0.3,1.1,0.5,1.7,0.5c0.3,0,0.6,0,0.9-0.1l21.7-5.9l4.1,14.9c0.2,0.9,0.8,1.7,1.6,2.1c0.5,0.3,1.1,0.5,1.7,0.5
		c0.3,0,0.6,0,0.9-0.1l37.4-10.2c1.9-0.5,3-2.4,2.5-4.3l-15-55.2c6.4-1.6,12.9-3,19.5-4.1c0.4-0.1,44.1-8.6,79-1.6
		c3.7,0.7,7.6,1.4,11.2,2.1c5.2,1,10.6,2,15.9,3.1l-14.9,54.8c-0.5,1.9,0.6,3.8,2.5,4.3l37.4,10.2c0.3,0.1,0.6,0.1,0.9,0.1
		c0.6,0,1.2-0.2,1.7-0.5c0.8-0.5,1.4-1.2,1.6-2.1l4.1-14.9l21.7,5.9c0.3,0.1,0.6,0.1,0.9,0.1c1.5,0,3-1,3.4-2.6l3.5-13l21.7,5.9
		c0.3,0.1,0.6,0.1,0.9,0.1c0.6,0,1.2-0.2,1.7-0.5c0.8-0.5,1.4-1.2,1.6-2.1l18.2-66.7c0.2-0.9,0.1-1.9-0.3-2.7
		c-0.5-0.8-1.2-1.4-2.1-1.6l-21.7-5.9l3.1-11.4c0.5-1.9-0.6-3.8-2.5-4.3l-21.7-5.9l4.8-17.6c0.5-1.9-0.6-3.8-2.5-4.3L259,132.2
		c-0.9-0.2-1.9-0.1-2.7,0.3c-0.8,0.5-1.4,1.2-1.6,2.1L239,192.2c-10.9-2.4-21.9-4.3-32.7-6c-34.6-5.8-79.7,1.2-81.6,1.5
		c-8.3,1.3-16.7,3.1-24.9,5.1l-15.6-57.3c-0.2-0.9-0.8-1.7-1.6-2.1c-0.8-0.5-1.8-0.6-2.7-0.3l-37.4,10.2c-1.9,0.5-3,2.4-2.5,4.3
		l4.8,17.6L23.6,171c-0.9,0.2-1.7,0.8-2.1,1.6c-0.5,0.8-0.6,1.8-0.3,2.7l3.1,11.4l-21.7,5.9c-0.9,0.2-1.7,0.8-2.1,1.6
		C0,195-0.1,196,0.2,196.9l18.2,66.7C18.5,264.6,19.1,265.3,19.9,265.8z M331.9,197.7l-16.3,59.9l-18.4-5l16.3-59.9L331.9,197.7z
		 M310.8,176l-2.9,10.5c-0.2,0.3-0.3,0.6-0.4,0.9l-18.2,66.7c-0.1,0.3-0.1,0.6-0.1,1l-3.3,12.1l-18.3-5l24.8-91.1L310.8,176z
		 M260.9,139.9l30.6,8.3l-4.5,16.4c-0.2,0.3-0.4,0.7-0.5,1.1l-26.7,97.9c-0.1,0.4-0.1,0.8-0.1,1.2l-3.8,13.8l-30.6-8.3L260.9,139.9z
		 M126.2,194.7c0.5-0.1,45.9-7.1,79.4-1.6c10.5,1.8,21.4,3.6,32,5.9l-3.1,11.2C229,209,223.4,208,218,207c-3.7-0.7-7.4-1.4-11.1-2.1
		c-36.3-7.2-79.9,1.3-81.7,1.6c-6.7,1.1-13.4,2.6-20,4.2l-3-11.1C110,197.6,118.1,196,126.2,194.7z M78.8,140.7l35.5,130.4
		l-30.6,8.3l-3.8-13.8c0-0.4,0-0.8-0.1-1.2l-26.6-97.8c-0.1-0.4-0.3-0.8-0.5-1.1l-4.5-16.4L78.8,140.7z M47.1,171.9L71.9,263
		l-18.3,5l-3.3-12c0-0.3,0-0.6-0.1-1L32,188.3c-0.1-0.3-0.2-0.6-0.4-0.9l-2.9-10.5L47.1,171.9z M26.1,193.5l16.3,59.9l-18.4,5
		L7.7,198.5L26.1,193.5z"/>
</g>
</svg>
