<?xml version="1.0" encoding="utf-8"?>
<!-- Generator: Adobe Illustrator 21.0.0, SVG Export Plug-In . SVG Version: 6.00 Build 0)  -->
<svg version="1.1" id="Layer_1" xmlns="http://www.w3.org/2000/svg" xmlns:xlink="http://www.w3.org/1999/xlink" x="0px" y="0px"
	 viewBox="0 0 297 423" fill="#4f00cf" style="enable-background:new 0 0 297 423;" xml:space="preserve">
<g>
	<path d="M150.5,154.8v-27.1c0-1.9-1.6-3.5-3.5-3.5s-3.5,1.6-3.5,3.5v27.1c0,1.9,1.6,3.5,3.5,3.5S150.5,156.7,150.5,154.8z"/>
	<path d="M100.2,178.8c0.7,0.7,1.6,1,2.5,1s1.8-0.3,2.5-1c1.4-1.4,1.4-3.6,0-4.9l-12.1-12.1c-1.4-1.4-3.6-1.4-5,0s-1.4,3.6,0,4.9
		L100.2,178.8z"/>
	<path d="M191.1,178.8l12.1-12.1c1.4-1.4,1.4-3.6,0-4.9c-1.4-1.4-3.6-1.4-4.9,0l-12.2,12.1c-1.4,1.4-1.4,3.6,0,4.9
		c0.7,0.7,1.6,1,2.5,1S190.4,179.5,191.1,178.8z"/>
	<path d="M64.5,104.1c2.5-5.3,2.4-11.3-0.3-16.5c-2.7-5.2-7.5-8.8-13.2-9.9l-22.6-4.3c-9.6-1.8-19.1,4.1-21.6,13.5
		c-4.8,17.4-9.3,50.1-2.2,69l0.1,0.2c-7.2,29.6-9.5,70.6,17.8,103.5c14.7,17.7,34.9,25.5,41.9,27.8c7.2,38.8,41.3,68.4,82.1,68.4
		c40.9,0,75-29.6,82.2-68.4c7.1-2.3,27.1-10.1,41.8-27.7c27.3-32.8,25-73.9,17.8-103.5l0.1-0.2c7.1-18.9,2.6-51.6-2.2-69
		c-2.6-9.4-12.1-15.3-21.6-13.5L242,77.8c-5.7,1.1-10.6,4.7-13.2,9.9c-2.7,5.2-2.8,11.2-0.3,16.5l7.7,16.6c-0.1,0.1-0.2,0.1-0.3,0.2
		l-8.3,3.9c-5.3,2.5-7.8,8.6-5.7,14.1c8.3,22.4,35,26,36.1,26.2h0.3c7.2,30.7,3.4,55.4-11.2,73.5c-7.2,8.9-14.4,13.8-18.7,16.1
		c-8-37.8-41.6-66.2-81.7-66.2S73,217,65,254.8c-4.3-2.3-11.6-7.2-18.8-16.2c-14.6-18.1-18.3-42.9-11.2-73.5h0.3
		c1.1-0.1,27.9-3.7,36.1-26.2c2-5.5-0.4-11.6-5.7-14.1l-8.3-3.9c-0.1-0.1-0.2-0.1-0.3-0.2L64.5,104.1z M28,163.5
		c-0.8,3.4-1.5,6.8-2,10l-16.9-4.3c0.6-3.5,1.3-6.9,2.1-10.1L28,163.5z M264.9,163.5l16.9-4.4c0.8,3.3,1.5,6.7,2.1,10.3l-16.9,4.1
		C266.3,170.2,265.7,166.9,264.9,163.5z M228.2,136.4c-0.8-2.1,0.1-4.4,2.1-5.4l12.1-5.7c3.3-1.1,8.4-1.7,12.1,3.3
		c0.7,0.9,1.7,1.4,2.8,1.4c0.7,0,1.5-0.2,2.1-0.7c1.6-1.2,1.9-3.3,0.7-4.9c-5.1-6.9-12-7.6-17.6-6.4l-7.9-17
		c-1.5-3.3-1.5-7.1,0.2-10.4s4.7-5.5,8.3-6.2l22.6-4.3c0.7-0.1,1.4-0.2,2.2-0.2c5.2,0,10,3.5,11.4,8.7c4.2,15.2,8.5,44.8,3.1,62.4
		l-25.6,6.6C251.2,156.6,233.9,151.8,228.2,136.4z M252.3,243c13.7-17,18.7-39,15.1-65.5l17-4.1c3.7,25.7,1.5,56.5-19.4,81.7
		c-11.5,13.8-27.1,21.2-35,24.3v-5.1c0-0.7,0.1-1.4,0.1-2.2c0-3.4-0.2-6.8-0.6-10.1C233.9,259.8,243.2,254.3,252.3,243z
		 M146.5,195.6c37.5,0,68.8,27.1,75.3,62.8l1.2,14.5v1.4c-1.1,41.2-35,74.4-76.5,74.4c-42.2,0-76.5-34.3-76.5-76.5l1.1-12.8
		C77.1,223.2,108.6,195.6,146.5,195.6z M40.5,243c9.2,11.4,18.5,16.9,23.1,19c-0.4,3.2-0.6,6.5-0.6,9.8v0.5v6.9
		c-7.9-3.1-23.5-10.4-35-24.3C7,229.6,4.8,198.8,8.6,173l16.9,4.3C21.8,204,26.8,226,40.5,243z M64.6,136.4
		c-5.7,15.4-23,20.2-28.6,21.3l-25.6-6.6c-5.3-17.6-1.1-47.2,3.1-62.4c1.6-5.9,7.6-9.6,13.6-8.5l22.6,4.3c3.6,0.7,6.6,2.9,8.3,6.2
		c1.7,3.3,1.7,7,0.2,10.4l-7.9,17c-5.6-1.2-12.5-0.5-17.6,6.4c-1.2,1.6-0.8,3.7,0.7,4.9c0.6,0.5,1.4,0.7,2.1,0.7
		c1.1,0,2.1-0.5,2.8-1.4c3.7-5,8.8-4.4,12.1-3.3l12.1,5.7C64.5,132,65.4,134.3,64.6,136.4z"/>
	<path d="M112.5,248c1.9,0,3.5-1.6,3.5-3.5c0-5,4.1-9.1,9.1-9.1c5,0,9.1,4.1,9.1,9.1c0,1.9,1.6,3.5,3.5,3.5s3.5-1.6,3.5-3.5
		c0-8.9-7.2-16.1-16.1-16.1s-16.1,7.2-16.1,16.1C109,246.4,110.6,248,112.5,248z"/>
	<path d="M155.3,248c1.9,0,3.5-1.6,3.5-3.5c0-5,4.1-9.1,9.1-9.1s9.1,4.1,9.1,9.1c0,1.9,1.6,3.5,3.5,3.5s3.5-1.6,3.5-3.5
		c0-8.9-7.2-16.1-16.1-16.1c-8.9,0-16.1,7.2-16.1,16.1C151.8,246.4,153.4,248,155.3,248z"/>
	<path d="M146.3,336c34.9,0,63.2-28.4,63.2-63.2c0-1.9-1.6-3.5-3.5-3.5H86.6c-1.9,0-3.5,1.6-3.5,3.5C83.1,307.6,111.4,336,146.3,336
		z M146.3,329c-17,0-32.2-7.6-42.6-19.5c11.8-5.4,47.6-18.4,84.9,0.2C178.4,321.5,163.2,329,146.3,329z M202.4,276.2
		c-0.6,10.2-4,19.7-9.4,27.8c-25.2-13-49.5-12.2-65.8-9.2c-13.1,2.4-23,6.6-27.8,8.9c-5.3-8-8.6-17.4-9.2-27.5L202.4,276.2
		L202.4,276.2z"/>
</g>
</svg>
