<svg id="Layer_1" data-name="Layer 1" xmlns="http://www.w3.org/2000/svg" width="70" height="70" viewBox="0 0 70 70">
  <title>prototype copy 2</title>
  <g>
    <path d="M9.54,43.53a3.92,3.92,0,1,0,3.92,3.92A3.93,3.93,0,0,0,9.54,43.53Zm0,6.53a2.61,2.61,0,1,1,2.61-2.61A2.61,2.61,0,0,1,9.54,50.06Z" style="fill: #f5aa2a"/>
    <circle cx="3.91" cy="53.96" r="1.73" style="fill: #f5aa2a"/>
    <path d="M41.31,34.1l-1,2a.31.31,0,0,0,.48.25l4.07-2.51a.31.31,0,0,0,0-.55L40.6,31.15a.31.31,0,0,0-.46.29l1.14,1.92A.78.78,0,0,1,41.31,34.1Z" style="fill: #f5aa2a"/>
    <path d="M32.82,29.27l-4.26-2.15a.31.31,0,0,0-.46.29l1.14,1.92a.78.78,0,0,1,0,.74l-1,2a.31.31,0,0,0,.48.25l4.07-2.51A.31.31,0,0,0,32.82,29.27Z" style="fill: #f5aa2a"/>
    <path d="M62.89,38.56l-4.26-2.15a.31.31,0,0,0-.46.29l1.14,1.92a.78.78,0,0,1,0,.74l-1,2a.31.31,0,0,0,.48.25l4.07-2.51A.31.31,0,0,0,62.89,38.56Z" style="fill: #f5aa2a"/>
    <path d="M67.59,26l-4.26-2.15a.31.31,0,0,0-.46.29L64,26a.78.78,0,0,1,0,.74l-1,2a.31.31,0,0,0,.48.25l4.07-2.51A.31.31,0,0,0,67.59,26Z" style="fill: #f5aa2a"/>
    <path d="M57.11,38.51l-3.88-.09a9,9,0,0,0-.11-2.6,7.22,7.22,0,0,0,3.21-6,7.09,7.09,0,0,0-.69-3l6.2-.06a.38.38,0,0,0,0-.75h0L55.25,26a7.23,7.23,0,0,0-5.49-3.38,9,9,0,0,0-15.2-3.39,9,9,0,0,0-11.7,3.62,9,9,0,0,0-11.16,8.78c0,.13,0,.25,0,.38a5.53,5.53,0,0,0,2.12,10.34,7.19,7.19,0,0,0,11,3.84,9,9,0,0,0,13.4-2,9,9,0,0,0,14.87-5.07l4,.1h0a.38.38,0,0,0,0-.75Zm-8.48-15a.66.66,0,0,0,.62.49A5.87,5.87,0,0,1,53.63,26c-5.07,0-10.18,0-15.24-.39-2.38-.16-3.7-.76-4.14-1.9a2.81,2.81,0,0,1,.34-2.4,9.13,9.13,0,0,1,1.85-2s0,0,0,0a7.72,7.72,0,0,1,12.17,4.14ZM30.68,47a7.68,7.68,0,0,1-5.3-2.12,6.31,6.31,0,0,1-1.25-7.19c1.69-3.27,5.8-3.42,9.11-3.54h.07a57.47,57.47,0,0,1,6,0,.38.38,0,1,0,.05-.75,58.09,58.09,0,0,0-6,0H33.2c-3.5.13-7.85.29-9.75,3.95a7,7,0,0,0,.91,7.54A5.87,5.87,0,0,1,15,41.61v0c-.9-4.24,2.07-8.39,5.38-10.18a14.47,14.47,0,0,1,6.84-1.31.38.38,0,0,0,0-.75h0A15.11,15.11,0,0,0,20,30.75c-3.38,1.83-6.43,6-5.88,10.32a4.2,4.2,0,0,1-1.54-8,5.35,5.35,0,0,1,2.77-.3.38.38,0,0,0,.12-.74,6,6,0,0,0-2.43.11c0-.16,0-.33,0-.48a7.71,7.71,0,0,1,9.92-7.39A6.37,6.37,0,0,0,22.73,27a.38.38,0,0,0,.37.3h.08a.38.38,0,0,0,.29-.45,6.77,6.77,0,0,1,.38-3,7.68,7.68,0,0,1,10.38-3.27c-.09.13-.19.26-.27.4a3.56,3.56,0,0,0-.4,3.06c.74,1.89,3.08,2.26,4.79,2.37,4.67.31,9.38.4,14.06.4h1.77a5.81,5.81,0,0,1,.86,3,5.89,5.89,0,0,1-2.76,5,6.44,6.44,0,0,0-2.93-3.64.38.38,0,1,0-.32.68c1.65.77,2.46,2.89,2.73,3.75a.63.63,0,0,0,0,.07,7.51,7.51,0,0,1,.16,2.72l-11.05-.27h-.23a3.76,3.76,0,0,0-2.48.51,2.46,2.46,0,0,0-.58.61,3.09,3.09,0,0,0,.09,3.5.64.64,0,0,0-.13.15A7.7,7.7,0,0,1,30.68,47Zm13.57-1.84a7.74,7.74,0,0,1-5.66-2.47l-.05,0a2.55,2.55,0,0,1-.35-3.06,1.71,1.71,0,0,1,.4-.42,3.11,3.11,0,0,1,2-.36l11.18.27A7.73,7.73,0,0,1,44.25,45.21Z" style="fill: #f5aa2a"/>
  </g>
</svg>
