<svg id="Layer_1" data-name="Layer 1" xmlns="http://www.w3.org/2000/svg" width="123.96" height="16.01" viewBox="0 0 123.96 16.01">
  <defs>
    <style>
      .cls-1 {
        fill: #f5aa2b;
      }
    </style>
  </defs>
  <title>kundelogoer_alle</title>
  <g>
    <path class="cls-1" d="M0,.25H2.63V13.41h7.44v2.35H0Z"/>
    <path class="cls-1" d="M17.8.25h2.63V13.41h7.45v2.35H17.8Z"/>
    <path class="cls-1" d="M42.88.25l5.95,15.51H46.16l-1.59-4.3H38.63L37,15.76H34.39l6-15.51ZM39.47,9.19h4.24L41.59,3.46Z"/>
    <path class="cls-1" d="M58.74,9.47v6.29H56.11V.25h6c3.21,0,5.28,1.62,5.28,4.65a4.22,4.22,0,0,1-4,4.47l4.49,6.39h-3L60.6,9.47Zm0-2.2H62c1.75,0,2.73-.93,2.73-2.37s-1-2.38-2.73-2.38h-3.3Z"/>
    <path class="cls-1" d="M76.77,11.46a3.35,3.35,0,0,0,3.51,2.33c1.81,0,3-.86,3-2.3,0-1.09-.63-1.72-2.25-2.1l-2.62-.63c-2.15-.5-3.87-1.67-3.87-4.16S76.69,0,79.82,0c3.36,0,5.33,1.72,5.88,4.29H83.08a3.11,3.11,0,0,0-3.23-2.07c-1.67,0-2.81.86-2.81,2.15,0,1,.66,1.69,2,2l2.7.63c2.42.55,4,2,4,4.29,0,2.91-2.32,4.7-5.52,4.7s-5.64-1.67-6.19-4.55Z"/>
    <path class="cls-1" d="M103.58.25V2.58H96V6.67h6.85V9H96v4.45h7.55v2.35H93.46V.25Z"/>
    <path class="cls-1" d="M124,15.76h-2L114,4.47V15.76h-2.52V.25H114L121.44,11V.25H124Z"/>
  </g>
</svg>
