<svg id="Layer_1" data-name="Layer 1" xmlns="http://www.w3.org/2000/svg" width="112.48" height="25" viewBox="0 0 112.48 25">
  <defs>
    <style>
      .cls-1 {
        fill: #f5aa2b;
      }
    </style>
  </defs>
  <title>kundelogoer_alle</title>
  <g>
    <g>
      <path class="cls-1" d="M35.84,23a.09.09,0,0,0,.09.09h5.32c.06,0,.09,0,.09.08v.95a.08.08,0,0,1-.09.09H34.66a.09.09,0,0,1-.09-.09V15.52a.08.08,0,0,1,.09-.08h1.09a.08.08,0,0,1,.09.08Z"/>
      <path class="cls-1" d="M44.16,15.44a.08.08,0,0,1,.09.08v8.64a.09.09,0,0,1-.09.09H43.07a.09.09,0,0,1-.09-.09V15.52a.08.08,0,0,1,.09-.08Z"/>
      <path class="cls-1" d="M55.14,15.44a.07.07,0,0,1,.08.08v8.64a.08.08,0,0,1-.08.09H53.93a.31.31,0,0,1-.25-.13L48,17v7.2a.09.09,0,0,1-.09.09H46.85a.08.08,0,0,1-.08-.09V15.52a.07.07,0,0,1,.08-.08h1.39a.13.13,0,0,1,.12.06L54,22.6V15.52a.08.08,0,0,1,.09-.08Z"/>
      <path class="cls-1" d="M59,19.24a.09.09,0,0,0,.09.09h5a.08.08,0,0,1,.09.08v.92a.09.09,0,0,1-.09.09h-5a.09.09,0,0,0-.09.09V23a.09.09,0,0,0,.09.09h6a.08.08,0,0,1,.09.08v.95a.09.09,0,0,1-.09.09H57.83a.09.09,0,0,1-.09-.09V15.52a.08.08,0,0,1,.09-.08h7.26a.08.08,0,0,1,.09.08v.95a.09.09,0,0,1-.09.09h-6a.08.08,0,0,0-.09.08Z"/>
    </g>
    <g>
      <polygon class="cls-1" points="34.22 11.72 34.22 0.7 37.15 0.7 40.87 8.93 44.53 0.7 47.33 0.7 47.33 11.72 44.92 11.72 44.92 5.31 42.13 11.72 39.55 11.72 36.73 5.34 36.73 11.72 34.22 11.72"/>
      <path class="cls-1" d="M51.25,11.72H48.41L53.3.7h3.49l4.92,11h-2.8l-1-2.2H52.19Zm5.81-4.27L55,2.78l-2,4.67Z"/>
      <polygon class="cls-1" points="62.85 11.72 62.85 0.7 73.36 0.7 73.36 2.91 65.39 2.91 65.39 5.09 72.22 5.09 72.22 7.24 65.39 7.24 65.39 9.51 73.38 9.51 73.38 11.72 62.85 11.72"/>
      <path class="cls-1" d="M75.43,11.72V.7h8.8a1.69,1.69,0,0,1,1.85,1.85v3.7c0,.85-.75,1.62-2.21,1.62h-.26l2.57,3.85H83.35L80.92,8H78v3.77Zm2.57-6h5.53V2.91H78V5.76Z"/>
      <path class="cls-1" d="M90.72,11.72h-.88a1.5,1.5,0,0,1-1.68-1.61V8.67h2.56v.85h5.43V7.27H89.92a1.6,1.6,0,0,1-1.72-1.6V2.4A1.68,1.68,0,0,1,89.93.71h7.13a1.62,1.62,0,0,1,1.63,1.76V3.78H96.15V2.91H90.72V5.08h6.21a1.69,1.69,0,0,1,1.76,1.78V10A1.55,1.55,0,0,1,97,11.72Z"/>
      <polygon class="cls-1" points="101.14 11.72 101.14 0.71 103.76 0.71 103.76 5.11 108.73 0.71 112.26 0.71 106.33 5.83 112.48 11.72 108.82 11.72 103.76 6.71 103.76 11.72 101.14 11.72"/>
    </g>
    <path class="cls-1" d="M20.84,0h-18A2.86,2.86,0,0,0,0,2.85v19.3A2.86,2.86,0,0,0,2.85,25h18a2.86,2.86,0,0,0,2.85-2.85V2.85A2.86,2.86,0,0,0,20.84,0Zm1.53,15.13h-7.5l1.67,7.31h0l-4.68-5.86L7.17,22.45h0l1.67-7.31H1.32v0l6.76-3.25L3.39,6l0,0,6.75,3.25,1.67-7.31h0l1.66,7.31L20.28,6l0,0-4.68,5.86,6.76,3.25Z"/>
  </g>
</svg>
