<svg id="Layer_1" data-name="Layer 1" xmlns="http://www.w3.org/2000/svg" width="115.59" height="115.59" viewBox="0 0 115.59 115.59">
  <title>What</title>
  <circle cx="38.19" cy="60.38" r="37.4" style="fill: #d8ffeb"/>
  <g>
    <path d="M111.53,90.78,97,80.44V55.9a3.7,3.7,0,0,0-3.69-3.69H32.46a3.7,3.7,0,0,0-3.69,3.69V90.52a3.7,3.7,0,0,0,3.69,3.69H62v4.13H59a1.81,1.81,0,0,0-1.6,1L54,105.91H49a.91.91,0,1,0,0,1.81H76.79a.91.91,0,1,0,0-1.81h-5l-3.42-6.58a1.81,1.81,0,0,0-1.6-1h-3V94.21H81.31l2,13.6a1.54,1.54,0,0,0,2.66.82l6.4-7,7.52,11.73a1.54,1.54,0,0,0,2.11.47l6.38-4a1.54,1.54,0,0,0,.46-2.15L101,96,111,93.53a1.54,1.54,0,0,0,.53-2.75Zm-44.77,9.39,3,5.74H56.06l3-5.74v0h7.68ZM32.46,92.4a1.88,1.88,0,0,1-1.88-1.88V55.9A1.88,1.88,0,0,1,32.46,54H93.34a1.88,1.88,0,0,1,1.88,1.88V79.15l-4-2.84v-17a2.3,2.3,0,0,0-2.3-2.3H37a2.3,2.3,0,0,0-2.3,2.3V86.93a2.3,2.3,0,0,0,2.3,2.3H80.43a.86.86,0,0,0,.15,0l.46,3.21Zm47.87-5H37a.48.48,0,0,1-.48-.48V59.35a.48.48,0,0,1,.48-.48H88.93a.48.48,0,0,1,.48.48V75l-9.21-6.57a1.54,1.54,0,0,0-2.42,1.47Zm19.91,6.87a1.54,1.54,0,0,0-.92,2.34l7.83,11.83-5.91,3.72-7.57-11.8a1.54,1.54,0,0,0-2.43-.21L85,107,79.68,70.3,110,91.91Z" style="fill: #091426"/>
    <circle cx="41.37" cy="63.38" r="1.52" style="fill: #091426"/>
    <circle cx="45.77" cy="63.38" r="1.52" style="fill: #091426"/>
    <circle cx="50.17" cy="63.38" r="1.52" style="fill: #091426"/>
    <polygon points="66.85 63.37 59.33 71.36 62.55 72.46 59.4 81.64 66.92 73.65 63.7 72.55 66.85 63.37" style="fill: #091426"/>
  </g>
</svg>
