<svg id="Layer_1" data-name="Layer 1" xmlns="http://www.w3.org/2000/svg" width="115.59" height="115.59" viewBox="0 0 115.59 115.59">
  <title>How</title>
  <circle cx="38.35" cy="60.38" r="37.4" style="fill: #d8ffeb"/>
  <g>
    <path d="M82.48,46.19a28,28,0,0,0-13.59,3.51,28.15,28.15,0,1,0,0,49.29,28.15,28.15,0,1,0,13.59-52.8Zm-27.2,54.4A26.25,26.25,0,1,1,67,50.84a28.13,28.13,0,0,0,0,47A26.28,26.28,0,0,1,55.28,100.59Zm27.2,0a26.09,26.09,0,0,1-12.11-3c.53-.34,1.05-.7,1.55-1.08a.54.54,0,1,0-.65-.87c-.64.48-1.3.93-2,1.35a26.24,26.24,0,0,1,0-45.37c.61.37,1.2.78,1.77,1.2A.54.54,0,0,0,71.7,52c-.43-.32-.88-.63-1.33-.92a26.25,26.25,0,1,1,12.11,49.54Z" style="fill: #091426"/>
    <path d="M79.56,86.63a.54.54,0,0,0-.73.22,26.89,26.89,0,0,1-1.51,2.5.54.54,0,1,0,.9.61,27.81,27.81,0,0,0,1.58-2.6A.54.54,0,0,0,79.56,86.63Z" style="fill: #091426"/>
    <path d="M75.53,91.68a26.88,26.88,0,0,1-2,2.11.54.54,0,1,0,.74.79,27.92,27.92,0,0,0,2.1-2.2.54.54,0,0,0-.82-.71Z" style="fill: #091426"/>
    <path d="M79.18,61.87a.54.54,0,0,0,.48-.8A27.82,27.82,0,0,0,78,58.48a.54.54,0,1,0-.89.62,26.76,26.76,0,0,1,1.54,2.49A.54.54,0,0,0,79.18,61.87Z" style="fill: #091426"/>
    <path d="M75.36,56.8a.54.54,0,1,0,.82-.71,28.06,28.06,0,0,0-2.12-2.18.54.54,0,0,0-.73.8A27,27,0,0,1,75.36,56.8Z" style="fill: #091426"/>
    <path d="M81.56,69.84a26.87,26.87,0,0,1,.33,2.91.54.54,0,0,0,.54.51h0a.54.54,0,0,0,.51-.57,27.89,27.89,0,0,0-.34-3,.54.54,0,0,0-1.07.18Z" style="fill: #091426"/>
    <path d="M81.43,67.38l.15,0a.54.54,0,0,0,.37-.67,27.71,27.71,0,0,0-1-2.87.54.54,0,0,0-1,.41,26.48,26.48,0,0,1,1,2.76A.54.54,0,0,0,81.43,67.38Z" style="fill: #091426"/>
    <path d="M82.48,75.15a.54.54,0,0,0-.57.52,26.86,26.86,0,0,1-.3,2.91.54.54,0,0,0,.45.62h.09a.54.54,0,0,0,.54-.46,28,28,0,0,0,.31-3A.54.54,0,0,0,82.48,75.15Z" style="fill: #091426"/>
    <path d="M81.65,81.05a.54.54,0,0,0-.67.38,26.55,26.55,0,0,1-.93,2.77.54.54,0,0,0,.3.7.54.54,0,0,0,.2,0,.54.54,0,0,0,.5-.34,27.6,27.6,0,0,0,1-2.89A.54.54,0,0,0,81.65,81.05Z" style="fill: #091426"/>
    <polygon points="71.92 63.41 64.9 72.21 68.29 73.07 65.85 82.72 72.86 73.92 69.48 73.06 71.92 63.41" style="fill: #091426"/>
    <path d="M45.67,72.51,39.5,69.39a.45.45,0,0,0-.66.42l1.64,2.78a1.13,1.13,0,0,1,0,1.07l-1.4,2.89a.45.45,0,0,0,.69.37L45.7,73.3A.45.45,0,0,0,45.67,72.51Z" style="fill: #091426"/>
    <path d="M97.05,72.42l1.4-2.89a.45.45,0,0,0-.69-.37l-5.88,3.63a.45.45,0,0,0,0,.79l6.17,3.12a.45.45,0,0,0,.66-.42L97.1,73.48A1.13,1.13,0,0,1,97.05,72.42Z" style="fill: #091426"/>
    <path d="M31.85,72.24h-.27a.54.54,0,1,0,0,1.09h.28a.54.54,0,0,0,0-1.09Z" style="fill: #091426"/>
    <path d="M37.82,72.37l-3-.06a.54.54,0,0,0,0,1.09l3,.06h0a.54.54,0,0,0,0-1.09Z" style="fill: #091426"/>
    <path d="M106.2,72.24h-.28a.54.54,0,0,0,0,1.09h.28a.54.54,0,0,0,0-1.09Z" style="fill: #091426"/>
    <path d="M102.93,72.31l-3,.06a.54.54,0,0,0,0,1.09h0l3-.06a.54.54,0,1,0,0-1.09Z" style="fill: #091426"/>
  </g>
</svg>
