<svg id="Layer_1" data-name="Layer 1" xmlns="http://www.w3.org/2000/svg" width="115.59" height="115.59" viewBox="0 0 115.59 115.59">
  <title>Why</title>
  <circle cx="37.76" cy="60.38" r="37.4" style="fill: #d8ffeb"/>
  <g>
    <polygon points="71.93 57.15 76.04 50.81 73.72 50.47 74.72 43.86 70.61 50.2 72.93 50.55 71.93 57.15" style="fill: #091426"/>
    <path d="M54.33,70.47a.84.84,0,0,0-1,.63,3.64,3.64,0,0,1-7.11,0,.84.84,0,1,0-1.63.37,5.32,5.32,0,0,0,10.37,0A.84.84,0,0,0,54.33,70.47Z" style="fill: #091426"/>
    <path d="M47.35,66.86a.84.84,0,0,0,1.67,0,3.47,3.47,0,0,0-6.95,0,.84.84,0,0,0,1.67,0,1.8,1.8,0,0,1,3.6,0Z" style="fill: #091426"/>
    <path d="M54,63.38a3.48,3.48,0,0,0-3.47,3.47.84.84,0,0,0,1.67,0,1.8,1.8,0,0,1,3.6,0,.84.84,0,0,0,1.67,0A3.48,3.48,0,0,0,54,63.38Z" style="fill: #091426"/>
    <path d="M77.77,78.62a.84.84,0,0,0-1,.63,3.64,3.64,0,0,1-7.11,0,.84.84,0,0,0-1.63.37,5.32,5.32,0,0,0,10.37,0A.84.84,0,0,0,77.77,78.62Z" style="fill: #091426"/>
    <path d="M70.79,75a.84.84,0,0,0,1.67,0,3.47,3.47,0,0,0-6.95,0,.84.84,0,0,0,1.67,0,1.8,1.8,0,0,1,3.6,0Z" style="fill: #091426"/>
    <path d="M77.44,71.53A3.48,3.48,0,0,0,74,75a.84.84,0,0,0,1.67,0,1.8,1.8,0,0,1,3.6,0,.84.84,0,0,0,1.67,0A3.48,3.48,0,0,0,77.44,71.53Z" style="fill: #091426"/>
    <path d="M101.21,85.57a.84.84,0,0,0-1,.63,3.64,3.64,0,0,1-7.11,0,.84.84,0,1,0-1.63.37,5.32,5.32,0,0,0,10.37,0A.84.84,0,0,0,101.21,85.57Z" style="fill: #091426"/>
    <path d="M94.24,82a.84.84,0,1,0,1.67,0A3.47,3.47,0,0,0,89,82a.84.84,0,0,0,1.67,0,1.8,1.8,0,0,1,3.6,0Z" style="fill: #091426"/>
    <path d="M100.89,78.49A3.48,3.48,0,0,0,97.41,82a.84.84,0,1,0,1.67,0,1.8,1.8,0,0,1,3.6,0,.84.84,0,0,0,1.67,0A3.48,3.48,0,0,0,100.89,78.49Z" style="fill: #091426"/>
    <path d="M97.37,69.16H96a11.86,11.86,0,0,0-10.06,5.59V73.8A11.87,11.87,0,0,0,74,61.94H72.61a11.86,11.86,0,0,0-10.27,5.94V65.12A11.87,11.87,0,0,0,50.48,53.26H49.07A11.87,11.87,0,0,0,37.21,65.12V90a7.73,7.73,0,0,0,7.72,7.72h57.44a6.88,6.88,0,0,0,6.87-6.87V81A11.87,11.87,0,0,0,97.37,69.16ZM60.67,96H44.92a6.05,6.05,0,0,1-6-6V65.12A10.2,10.2,0,0,1,49.07,54.93h1.42A10.2,10.2,0,0,1,60.67,65.12Zm1.76-22.2A10.2,10.2,0,0,1,72.61,63.62H74A10.2,10.2,0,0,1,84.22,73.8v5.49A11.9,11.9,0,0,0,84.09,81V96H62.43Zm45.13,17a5.2,5.2,0,0,1-5.2,5.2H85.89V79.41A10.2,10.2,0,0,1,96,70.83h1.42A10.2,10.2,0,0,1,107.56,81Z" style="fill: #091426"/>
  </g>
</svg>
